<svg id="visual" viewBox="0 0 960 540" width="960" height="540" xmlns="http://www.w3.org/2000/svg" xmlns:xlink="http://www.w3.org/1999/xlink" version="1.1"><rect x="0" y="0" width="960" height="540" fill="#303030"></rect><path d="M0 239L22.8 251.2C45.7 263.3 91.3 287.7 137 296.8C182.7 306 228.3 300 274 277.8C319.7 255.7 365.3 217.3 411.2 198.7C457 180 503 181 548.8 199C594.7 217 640.3 252 686 264C731.7 276 777.3 265 823 250.3C868.7 235.7 914.3 217.3 937.2 208.2L960 199L960 541L937.2 541C914.3 541 868.7 541 823 541C777.3 541 731.7 541 686 541C640.3 541 594.7 541 548.8 541C503 541 457 541 411.2 541C365.3 541 319.7 541 274 541C228.3 541 182.7 541 137 541C91.3 541 45.7 541 22.8 541L0 541Z" fill="#303030"></path><path d="M0 311L22.8 308.5C45.7 306 91.3 301 137 299.3C182.7 297.7 228.3 299.3 274 299.8C319.7 300.3 365.3 299.7 411.2 310.7C457 321.7 503 344.3 548.8 342.2C594.7 340 640.3 313 686 299.5C731.7 286 777.3 286 823 283.7C868.7 281.3 914.3 276.7 937.2 274.3L960 272L960 541L937.2 541C914.3 541 868.7 541 823 541C777.3 541 731.7 541 686 541C640.3 541 594.7 541 548.8 541C503 541 457 541 411.2 541C365.3 541 319.7 541 274 541C228.3 541 182.7 541 137 541C91.3 541 45.7 541 22.8 541L0 541Z" fill="#2d3a36"></path><path d="M0 328L22.8 332.3C45.7 336.7 91.3 345.3 137 342.8C182.7 340.3 228.3 326.7 274 333.7C319.7 340.7 365.3 368.3 411.2 375.8C457 383.3 503 370.7 548.8 365C594.7 359.3 640.3 360.7 686 358.2C731.7 355.7 777.3 349.3 823 342.3C868.7 335.3 914.3 327.7 937.2 323.8L960 320L960 541L937.2 541C914.3 541 868.7 541 823 541C777.3 541 731.7 541 686 541C640.3 541 594.7 541 548.8 541C503 541 457 541 411.2 541C365.3 541 319.7 541 274 541C228.3 541 182.7 541 137 541C91.3 541 45.7 541 22.8 541L0 541Z" fill="#27433d"></path><path d="M0 416L22.8 415.2C45.7 414.3 91.3 412.7 137 409.3C182.7 406 228.3 401 274 408.5C319.7 416 365.3 436 411.2 443.5C457 451 503 446 548.8 438.2C594.7 430.3 640.3 419.7 686 414C731.7 408.3 777.3 407.7 823 412C868.7 416.3 914.3 425.7 937.2 430.3L960 435L960 541L937.2 541C914.3 541 868.7 541 823 541C777.3 541 731.7 541 686 541C640.3 541 594.7 541 548.8 541C503 541 457 541 411.2 541C365.3 541 319.7 541 274 541C228.3 541 182.7 541 137 541C91.3 541 45.7 541 22.8 541L0 541Z" fill="#1e4c44"></path><path d="M0 459L22.8 458.2C45.7 457.3 91.3 455.7 137 457.5C182.7 459.3 228.3 464.7 274 463.5C319.7 462.3 365.3 454.7 411.2 455.8C457 457 503 467 548.8 474.5C594.7 482 640.3 487 686 482.5C731.7 478 777.3 464 823 455.5C868.7 447 914.3 444 937.2 442.5L960 441L960 541L937.2 541C914.3 541 868.7 541 823 541C777.3 541 731.7 541 686 541C640.3 541 594.7 541 548.8 541C503 541 457 541 411.2 541C365.3 541 319.7 541 274 541C228.3 541 182.7 541 137 541C91.3 541 45.7 541 22.8 541L0 541Z" fill="#0d564a"></path></svg>